#!OML:ASF X:\für Bonn\!DataBase\2005_08_11_Bastian_Final\c3d\Bastian.ASF
:FULLY-SPECIFIED
:DEGREES
166
root -1.61524 17.2443 5.92051 164.035 -4.83096 -174.939
lowerback 8.26458 -3.33175 1.56466
upperback 7.36271 -5.43223 3.17075
thorax 3.22213 -3.17046 2.6691
lowerneck -5.98672 -3.6664 -2.55398
upperneck -1.7823 -4.58555 6.25376
head 0.685489 -2.13747 2.29571
rclavicle -3.39922e-014 -5.56597e-015
rhumerus -31.2939 21.4921 -90.4553
rradius 70.3583
rwrist -22.2063
rhand -39.6836 19.2994
rfingers 7.12502
rthumb -12.6628 -10.2968
lclavicle -3.39922e-014 -5.56597e-015
lhumerus -8.74142 -55.2432 88.6441
lradius 56.391
lwrist -17.8195
lhand -46.2866 -7.57425
lfingers 7.12502
lthumb -19.0213 21.5157
rfemur -2.64985 -4.35759 22.7384
rtibia 48.3852
rfoot -15.7189 -8.22937
rtoes -10.3881
lfemur 4.2575 -0.0861813 -15.6439
ltibia 30.2955
lfoot -14.1876 0.255801
ltoes 8.54536
167
root -1.57982 17.2394 5.91051 164.191 -4.80784 -175.135
lowerback 8.0701 -3.27556 1.30432
upperback 7.33619 -5.3496 3.07859
thorax 3.30922 -3.1264 2.69952
lowerneck -6.02465 -3.65978 -2.47493
upperneck -1.74863 -4.58155 6.24377
head 0.699889 -2.1343 2.27757
rclavicle -1.38901e-014 4.21423e-014
rhumerus -30.7553 21.4111 -90.5276
rradius 71.0551
rwrist -22.1502
rhand -39.7169 19.5811
rfingers 7.12502
rthumb -12.6948 -10.0131
lclavicle -1.38901e-014 4.21423e-014
lhumerus -10.5001 -55.3953 89.856
lradius 54.9152
lwrist -17.8566
lhand -45.7665 -6.76263
lfingers 7.12502
lthumb -18.5211 22.3757
rfemur -2.33471 -4.93198 22.5736
rtibia 47.774
rfoot -16.5062 -8.13832
rtoes -9.39257
lfemur 4.06661 -0.0632476 -15.7214
ltibia 30.4288
lfoot -14.2139 0.278493
ltoes 8.11358
168
root -1.54374 17.2333 5.90229 164.332 -4.79281 -175.284
lowerback 7.89831 -3.22076 1.08228
upperback 7.31856 -5.27149 3.01177
thorax 3.39296 -3.08626 2.73705
lowerneck -6.06694 -3.66484 -2.39513
upperneck -1.72868 -4.59286 6.19901
head 0.710243 -2.1395 2.24741
rclavicle -3.18055e-014 3.57812e-014
rhumerus -30.2513 21.3517 -90.5546
rradius 71.85
rwrist -22.0956
rhand -39.7355 19.842
rfingers 7.12502
rthumb -12.7128 -9.75102
lclavicle -3.18055e-014 3.57812e-014
lhumerus -12.1943 -55.4731 91.0883
lradius 53.4751
lwrist -17.6104
lhand -45.0768 -5.96494
lfingers 7.12502
lthumb -17.8576 23.2352
rfemur -2.02012 -5.39407 22.5076
rtibia 47.1625
rfoot -17.3031 -8.19711
rtoes -8.97431
lfemur 3.85839 -0.00840879 -15.7361
ltibia 30.5827
lfoot -14.2258 0.271957
ltoes 7.59304
169
root -1.5062 17.2266 5.8953 164.474 -4.78367 -175.454
lowerback 7.75008 -3.15567 0.842132
upperback 7.2923 -5.17564 2.92731
thorax 3.4533 -3.03659 2.76847
lowerneck -6.10323 -3.67251 -2.31699
upperneck -1.70824 -4.60689 6.19505
head 0.721186 -2.14516 2.231
rclavicle 5.78463e-014 -5.725e-014
rhumerus -29.8009 21.2678 -90.6042
rradius 72.6868
rwrist -22.0903
rhand -39.7812 20.212
rfingers 7.12502
rthumb -12.7569 -9.37828
lclavicle 5.78463e-014 -5.725e-014
lhumerus -13.8769 -55.5474 92.311
lradius 52.1012
lwrist -17.1248
lhand -44.256 -5.23229
lfingers 7.12502
lthumb -17.0676 24.038
rfemur -1.71191 -5.7646 22.4555
rtibia 46.5529
rfoot -18.0515 -8.34422
rtoes -8.6165
lfemur 3.63637 0.0468267 -15.7707
ltibia 30.7589
lfoot -14.24 0.259517
ltoes 6.99424
170
root -1.46871 17.2209 5.88909 164.608 -4.77039 -175.605
lowerback 7.60494 -3.09318 0.629911
upperback 7.28027 -5.08544 2.84549
thorax 3.52516 -2.99042 2.7874
lowerneck -6.12404 -3.68277 -2.22824
upperneck -1.72613 -4.6227 6.1717
head 0.716445 -2.15249 2.20673
rclavicle -5.59579e-014 2.90226e-014
rhumerus -29.3694 21.2091 -90.6527
rradius 73.5964
rwrist -22.0951
rhand -39.8159 20.5703
rfingers 7.12502
rthumb -12.7903 -9.0179
lclavicle -5.59579e-014 2.90226e-014
lhumerus -15.4906 -55.6234 93.4951
lradius 50.7892
lwrist -16.3038
lhand -43.3531 -4.56068
lfingers 7.12502
lthumb -16.1984 24.7825
rfemur -1.42266 -6.08767 22.4361
rtibia 45.9479
rfoot -18.7531 -8.45068
rtoes -7.8319
lfemur 3.42207 0.0367491 -15.8
ltibia 30.9426
lfoot -14.2511 0.286179
ltoes 6.48498
171
root -1.4304 17.214 5.88512 164.753 -4.76915 -175.732
lowerback 7.4868 -3.03398 0.432176
upperback 7.24758 -4.99593 2.7772
thorax 3.56033 -2.94372 2.81582
lowerneck -6.13274 -3.70083 -2.1945
upperneck -1.72112 -4.64769 6.1965
head 0.72044 -2.1638 2.20791
rclavicle -1.40143e-014 -1.74931e-014
rhumerus -28.9537 21.1477 -90.6721
rradius 74.5358
rwrist -22.1281
rhand -39.8116 20.9651
rfingers 7.12502
rthumb -12.7861 -8.62332
lclavicle -1.40143e-014 -1.74931e-014
lhumerus -17.1252 -55.6823 94.7361
lradius 49.5298
lwrist -15.09
lhand -42.4513 -4.0045
lfingers 7.12502
lthumb -15.3299 25.4073
rfemur -1.16869 -6.34743 22.4628
rtibia 45.3514
rfoot -19.4181 -8.5818
rtoes -6.82536
lfemur 3.17984 0.00381242 -15.8115
ltibia 31.132
lfoot -14.3031 0.347686
ltoes 5.77987
172
root -1.39142 17.2083 5.88181 164.874 -4.79458 -175.9
lowerback 7.38312 -2.96399 0.203824
upperback 7.24057 -4.89475 2.67527
thorax 3.61309 -2.89287 2.82626
lowerneck -6.14394 -3.7315 -2.05459
upperneck -1.74881 -4.69281 6.1659
head 0.710421 -2.18598 2.17145
rclavicle 7.63085e-014 -6.48038e-014
rhumerus -28.4967 21.0742 -90.6926
rradius 75.4901
rwrist -22.205
rhand -39.7838 21.3242
rfingers 7.12502
rthumb -12.7593 -8.26589
lclavicle 7.63085e-014 -6.48038e-014
lhumerus -18.7242 -55.9121 95.9306
lradius 48.4008
lwrist -13.4238
lhand -41.6757 -3.37826
lfingers 7.12502
lthumb -14.5827 26.0891
rfemur -0.904232 -6.55476 22.4555
rtibia 44.7677
rfoot -20.0236 -8.72569
rtoes -5.62492
lfemur 2.97016 -0.0463651 -15.8736
ltibia 31.3188
lfoot -14.352 0.395874
ltoes 5.15099
173
root -1.3515 17.2029 5.88092 164.983 -4.82958 -176.041
lowerback 7.34553 -2.8996 -0.0152107
upperback 7.2279 -4.80319 2.5978
thorax 3.62533 -2.84873 2.86254
lowerneck -6.21361 -3.75459 -1.99156
upperneck -1.74093 -4.72459 6.17544
head 0.724678 -2.19922 2.16125
rclavicle 3.49116e-014 -1.63003e-014
rhumerus -28.0298 21.0667 -90.6655
rradius 76.4781
rwrist -22.2784
rhand -39.7554 21.6319
rfingers 7.12502
rthumb -12.732 -7.95992
lclavicle 3.49116e-014 -1.63003e-014
lhumerus -20.3529 -56.1439 97.1818
lradius 47.3606
lwrist -11.5096
lhand -41.0843 -2.61514
lfingers 7.12502
lthumb -14.0128 26.8925
rfemur -0.66596 -6.69959 22.4916
rtibia 44.203
rfoot -20.5783 -8.89875
rtoes -4.5765
lfemur 2.75722 -0.111623 -15.9101
ltibia 31.5056
lfoot -14.4191 0.483091
ltoes 4.00103
174
root -1.31164 17.1973 5.88099 165.082 -4.8636 -176.185
lowerback 7.34796 -2.8296 -0.239837
upperback 7.21662 -4.70506 2.5146
thorax 3.61618 -2.80202 2.89871
lowerneck -6.3107 -3.78293 -1.87885
upperneck -1.72126 -4.76657 6.16185
head 0.745521 -2.21716 2.13381
rclavicle 6.7885e-014 -4.92986e-014
rhumerus -27.5519 21.1033 -90.6343
rradius 77.4857
rwrist -22.3995
rhand -39.7426 21.957
rfingers 7.12502
rthumb -12.7197 -7.6356
lclavicle 6.7885e-014 -4.92986e-014
lhumerus -21.9997 -56.5141 98.4618
lradius 46.395
lwrist -9.20833
lhand -40.7975 -1.80131
lfingers 7.12502
lthumb -13.7365 27.7253
rfemur -0.451207 -6.7759 22.5436
rtibia 43.6673
rfoot -21.0413 -9.09367
rtoes -3.49379
lfemur 2.55441 -0.202426 -15.953
ltibia 31.6925
lfoot -14.4907 0.581607
ltoes 3.12895
175
root -1.27114 17.1925 5.88228 165.194 -4.9037 -176.335
lowerback 7.37526 -2.75538 -0.475556
upperback 7.19506 -4.60119 2.43807
thorax 3.58326 -2.75276 2.95003
lowerneck -6.41407 -3.81591 -1.78101
upperneck -1.71031 -4.81339 6.1456
head 0.765174 -2.23744 2.10798
rclavicle 1.52567e-014 3.1408e-014
rhumerus -27.0545 21.1735 -90.5436
rradius 78.5254
rwrist -22.5014
rhand -39.6892 22.1459
rfingers 7.12502
rthumb -12.6682 -7.44987
lclavicle 1.52567e-014 3.1408e-014
lhumerus -23.7266 -56.9685 99.8218
lradius 45.5209
lwrist -6.69044
lhand -40.796 -0.819226
lfingers 7.12502
lthumb -13.735 28.7075
rfemur -0.293912 -6.81121 22.5908
rtibia 43.1735
rfoot -21.4129 -9.27926
rtoes -2.65871
lfemur 2.32793 -0.293075 -16.0018
ltibia 31.889
lfoot -14.5584 0.675462
ltoes 1.95641
176
root -1.22992 17.1864 5.88555 165.277 -4.95731 -176.497
lowerback 7.47604 -2.68417 -0.735886
upperback 7.17902 -4.50558 2.35393
thorax 3.51691 -2.70979 3.01219
lowerneck -6.59074 -3.83924 -1.61368
upperneck -1.64357 -4.85498 6.07543
head 0.810866 -2.25422 2.05096
rclavicle -3.28492e-014 6.20208e-014
rhumerus -26.5483 21.3077 -90.434
rradius 79.5985
rwrist -22.6102
rhand -39.6652 22.2881
rfingers 7.12502
rthumb -12.645 -7.30913
lclavicle -3.28492e-014 6.20208e-014
lhumerus -25.5159 -57.49 101.22
lradius 44.7554
lwrist -3.98924
lhand -41.0926 0.270414
lfingers 7.12502
lthumb -14.0209 29.7775
rfemur -0.141751 -6.78819 22.6466
rtibia 42.7296
rfoot -21.6961 -9.5293
rtoes -2.0299
lfemur 2.12296 -0.458693 -16.0851
ltibia 32.0946
lfoot -14.6433 0.830763
ltoes 0.729673
177
root -1.18909 17.1807 5.89069 165.375 -5.01055 -176.643
lowerback 7.56988 -2.61253 -0.957707
upperback 7.16568 -4.40992 2.2758
thorax 3.45456 -2.6657 3.05837
lowerneck -6.7531 -3.87632 -1.53349
upperneck -1.61643 -4.90662 6.06734
head 0.846661 -2.27505 2.02981
rclavicle -1.10574e-014 3.97569e-015
rhumerus -25.9837 21.4536 -90.273
rradius 80.6621
rwrist -22.7495
rhand -39.6375 22.3949
rfingers 7.12502
rthumb -12.6184 -7.20396
lclavicle -1.10574e-014 3.97569e-015
lhumerus -27.3133 -58.0061 102.646
lradius 44.013
lwrist -1.25489
lhand -41.5979 1.31528
lfingers 7.12502
lthumb -14.5077 30.7881
rfemur -0.0554501 -6.71498 22.7285
rtibia 42.3437
rfoot -21.9149 -9.76343
rtoes -1.45661
lfemur 1.88817 -0.599962 -16.1445
ltibia 32.3079
lfoot -14.713 0.963555
ltoes -0.658425
178
root -1.14822 17.1749 5.89846 165.453 -5.08579 -176.806
lowerback 7.7088 -2.54709 -1.18369
upperback 7.17015 -4.3277 2.18269
thorax 3.38579 -2.63002 3.09387
lowerneck -6.96637 -3.90626 -1.4611
upperneck -1.56124 -4.94915 6.08446
head 0.900888 -2.28916 2.01762
rclavicle -4.01545e-014 3.89618e-014
rhumerus -25.3514 21.6161 -90.0744
rradius 81.7379
rwrist -22.8842
rhand -39.569 22.46
rfingers 7.12502
rthumb -12.5523 -7.14296
lclavicle -4.01545e-014 3.89618e-014
lhumerus -29.0401 -58.5448 104.003
lradius 43.3123
lwrist 1.44969
lhand -42.1639 2.41466
lfingers 7.12502
lthumb -15.0531 31.8474
rfemur 0.00750571 -6.65151 22.7873
rtibia 42.0173
rfoot -22.0716 -10.0207
rtoes -0.788323
lfemur 1.65374 -0.788881 -16.2371
ltibia 32.5324
lfoot -14.7728 1.15046
ltoes -2.1881
